# xmcd
#
# Track frame offsets:
#	180
#	13654
#	27737
#	39796
#	54289
#	75333
#	87913
#	107308
#	126715
#	138542
#	149741
#	169190
#	182247
#	194784
#	196378
#	213213
#	228490
#	249464
#	262390
#
# Disc length: 3725 seconds
#
# Revision: 2
# Processed by: cddbd v1.5.1PL2 Copyright (c) Steve Scherf et al.
# Submitted via: EasyCDDAExtractor 9.0.0.1
#
DISCID=1b0e8b13
DTITLE=Tom Morrell and The Time Warp Tophands - How The West Was Swung, Vol.10 (
DTITLE=Win, Place And Show)
DYEAR=1998
DGENRE=Swing
TTITLE0=Hurry Home Or I'll Be Gone
TTITLE1=I Needed You
TTITLE2=Emmett
TTITLE3=Oldie Boogie
TTITLE4=Till Then
TTITLE5=One Way Ticket Back Home
TTITLE6=Is You Is
TTITLE7=9:20 Special
TTITLE8=Pastime Blues
TTITLE9=Slow Poke
TTITLE10=Texas Is Still Home To Me
TTITLE11=Miss Molly
TTITLE12=1 Fiddle, 2 Fiddle, 3 Fiddle, Play
TTITLE13=Bud's Belch
TTITLE14=Bud's Bounce
TTITLE15=Cowboy Serenade
TTITLE16=Yours
TTITLE17=Whose Heart Are You Breaking Now
TTITLE18=My Old Kentucky Home
EXTD=
EXTT0=
EXTT1=
EXTT2=
EXTT3=
EXTT4=
EXTT5=
EXTT6=
EXTT7=
EXTT8=
EXTT9=
EXTT10=
EXTT11=
EXTT12=
EXTT13=
EXTT14=
EXTT15=
EXTT16=
EXTT17=
EXTT18=
PLAYORDER=
